<?xml version="1.0" standalone="no"?>
<!DOCTYPE svg PUBLIC "-//W3C//DTD SVG 20010904//EN"
 "http://www.w3.org/TR/2001/REC-SVG-20010904/DTD/svg10.dtd">
<svg version="1.0" xmlns="http://www.w3.org/2000/svg"
 width="500.000000pt" height="500.000000pt" viewBox="0 0 500.000000 500.000000"
 preserveAspectRatio="xMidYMid meet">
<metadata>
Created by potrace 1.11, written by Peter Selinger 2001-2013
</metadata>
<g transform="translate(0.000000,500.000000) scale(0.100000,-0.100000)"
fill="#000000" stroke="none">
<path d="M0 2500 l0 -2500 2500 0 2500 0 0 2500 0 2500 -2500 0 -2500 0 0
-2500z m2189 1463 c35 -76 1251 -2884 1251 -2888 0 -3 -128 -5 -284 -5 -215 0
-287 3 -293 12 -4 7 -81 186 -170 398 l-161 385 -481 3 c-265 1 -481 6 -481
10 0 4 40 108 89 232 l90 225 291 3 c227 2 291 5 287 15 -36 94 -441 1054
-446 1060 -4 4 -221 -516 -481 -1155 -260 -640 -477 -1169 -483 -1175 -11 -16
-547 -19 -547 -4 0 5 275 656 611 1448 336 791 613 1444 616 1451 4 9 72 12
292 12 l288 0 12 -27z m2197 -652 c50 -5 127 -19 172 -31 l82 -22 0 -160 0
-160 -22 6 c-137 40 -181 47 -288 48 -63 1 -133 -4 -156 -10 -112 -32 -189
-130 -201 -257 l-6 -65 242 0 242 0 -3 -157 -3 -158 -237 -3 -238 -2 -2 -638
-3 -637 -200 0 -200 0 0 865 c0 781 2 871 17 931 63 245 211 384 464 433 135
26 204 30 340 17z"/>
</g>
</svg>
